<svg width="80" height="80" viewBox="0 0 80 80" fill="none" xmlns="http://www.w3.org/2000/svg">
<mask id="mask0_133_25" style="mask-type:alpha" maskUnits="userSpaceOnUse" x="0" y="0" width="80" height="80">
<rect width="80" height="80" fill="#D9D9D9"/>
</mask>
<g mask="url(#mask0_133_25)">
<mask id="mask1_133_25" style="mask-type:alpha" maskUnits="userSpaceOnUse" x="0" y="0" width="80" height="80">
<rect width="80" height="80" fill="#AAAAAA"/>
</mask>
<g mask="url(#mask1_133_25)">
</g>
<path d="M42.5 15C30.2188 15 19.8281 23.0469 16.2969 34.1406C21.5469 31.4844 27.4687 30 33.75 30H47.5C48.875 30 50 31.125 50 32.5C50 33.875 48.875 35 47.5 35H45H33.75C31.1562 35 28.6406 35.2969 26.2031 35.8437C22.1562 36.7656 18.4063 38.4062 15.0469 40.6406C5.98438 46.6875 0 57.0156 0 68.75V71.25C0 73.3281 1.67187 75 3.75 75C5.82813 75 7.5 73.3281 7.5 71.25V68.75C7.5 61.1406 10.7344 54.2969 15.9063 49.5C19 61.2969 29.7344 70 42.5 70H42.6562C63.2969 69.8906 80 49.5469 80 24.4687C80 17.8125 78.8281 11.4844 76.7031 5.78123C76.2969 4.70311 74.7188 4.74998 74.1719 5.76561C71.2344 11.2656 65.4219 15 58.75 15H42.5Z" fill="black"/>
<path d="M42.5 15C30.2188 15 19.8281 23.0469 16.2969 34.1407C21.5469 31.4844 27.4687 30 33.75 30H47.5C48.875 30 50 31.125 50 32.5C50 33.875 48.875 35 47.5 35H45H33.75C31.1562 35 28.6406 35.2969 26.2031 35.8438C22.1562 36.7657 18.4063 38.4063 15.0469 40.6407C5.98438 46.6875 0 57.0157 0 68.75V71.25C0 73.3282 1.67187 75 3.75 75C5.82813 75 7.5 73.3282 7.5 71.25V68.75C7.5 61.1407 10.7344 54.2969 15.9063 49.5C19 61.2969 29.7344 70 42.5 70H42.6562C63.2969 69.8907 80 49.5469 80 24.4688C80 17.8125 78.8281 11.4844 76.7031 5.78129C76.2969 4.70317 74.7188 4.75004 74.1719 5.76567C71.2344 11.2657 65.4219 15 58.75 15H42.5Z" fill="black"/>
</g>
</svg>
