<svg width="24" height="24" viewBox="0 0 24 24" fill="none" xmlns="http://www.w3.org/2000/svg">
<mask id="mask0_101_144" style="mask-type:alpha" maskUnits="userSpaceOnUse" x="0" y="0" width="24" height="24">
<rect width="24" height="24" fill="#B0B0B0"/>
</mask>
<g mask="url(#mask0_101_144)">
</g>
<g clip-path="url(#clip0_101_144)">
<path d="M9 5.25C9 3.59531 10.3453 2.25 12 2.25C13.6547 2.25 15 3.59531 15 5.25V7.5H9V5.25ZM6.75 7.5H3.75C2.50781 7.5 1.5 8.50781 1.5 9.75V19.5C1.5 21.9844 3.51562 24 6 24H18C20.4844 24 22.5 21.9844 22.5 19.5V9.75C22.5 8.50781 21.4922 7.5 20.25 7.5H17.25V5.25C17.25 2.34844 14.9016 0 12 0C9.09844 0 6.75 2.34844 6.75 5.25V7.5ZM7.875 9.75C8.17337 9.75 8.45952 9.86853 8.6705 10.0795C8.88147 10.2905 9 10.5766 9 10.875C9 11.1734 8.88147 11.4595 8.6705 11.6705C8.45952 11.8815 8.17337 12 7.875 12C7.57663 12 7.29048 11.8815 7.0795 11.6705C6.86853 11.4595 6.75 11.1734 6.75 10.875C6.75 10.5766 6.86853 10.2905 7.0795 10.0795C7.29048 9.86853 7.57663 9.75 7.875 9.75ZM15 10.875C15 10.5766 15.1185 10.2905 15.3295 10.0795C15.5405 9.86853 15.8266 9.75 16.125 9.75C16.4234 9.75 16.7095 9.86853 16.9205 10.0795C17.1315 10.2905 17.25 10.5766 17.25 10.875C17.25 11.1734 17.1315 11.4595 16.9205 11.6705C16.7095 11.8815 16.4234 12 16.125 12C15.8266 12 15.5405 11.8815 15.3295 11.6705C15.1185 11.4595 15 11.1734 15 10.875Z" fill="white"/>
</g>
<defs>
<clipPath id="clip0_101_144">
<rect width="21" height="24" fill="white" transform="translate(1.5)"/>
</clipPath>
</defs>
</svg>
