<svg width="80" height="80" viewBox="0 0 80 80" fill="none" xmlns="http://www.w3.org/2000/svg">
<mask id="mask0_133_10" style="mask-type:alpha" maskUnits="userSpaceOnUse" x="0" y="0" width="80" height="80">
<rect width="80" height="80" fill="#D9D9D9"/>
</mask>
<g mask="url(#mask0_133_10)">
</g>
<g clip-path="url(#clip0_133_10)">
<path d="M49.6805 5.98018C47.9722 4.41074 45.3472 4.41074 43.6528 5.98018L14.7639 32.6468C13.4583 33.8413 13 35.7024 13.5833 37.3691C25.6806 40.883 35.1944 50.4524 38.625 62.5913L64.4444 62.5774C68.125 62.5774 71.1111 59.5913 71.1111 55.9107V40.3552H75.5555C77.3889 40.3552 79.0278 39.2302 79.6944 37.5357C80.3611 35.8413 79.9167 33.8968 78.5694 32.6468L49.6805 5.98018ZM40 33.6885C40 32.4663 41 31.4663 42.2222 31.4663H51.1111C52.3333 31.4663 53.3333 32.4663 53.3333 33.6885V42.5774C53.3333 43.7996 52.3333 44.7996 51.1111 44.7996H42.2222C41 44.7996 40 43.7996 40 42.5774V33.6885ZM3.33333 40.3552C1.48611 40.3552 0 41.8413 0 43.6885C0 45.5357 1.48611 47.0218 3.33333 47.0218C17.4444 47.0218 28.8889 58.4663 28.8889 72.5774C28.8889 74.4246 30.375 75.9107 32.2222 75.9107C34.0694 75.9107 35.5555 74.4246 35.5555 72.5774C35.5555 54.7857 21.125 40.3552 3.33333 40.3552ZM4.44444 75.9107C5.62318 75.9107 6.75365 75.4425 7.58714 74.609C8.42064 73.7755 8.88889 72.645 8.88889 71.4663C8.88889 70.2876 8.42064 69.1571 7.58714 68.3236C6.75365 67.4901 5.62318 67.0218 4.44444 67.0218C3.2657 67.0218 2.13524 67.4901 1.30175 68.3236C0.468253 69.1571 0 70.2876 0 71.4663C0 72.645 0.468253 73.7755 1.30175 74.609C2.13524 75.4425 3.2657 75.9107 4.44444 75.9107ZM0 57.0218C0 58.8691 1.48611 60.3552 3.33333 60.3552C10.0833 60.3552 15.5556 65.8274 15.5556 72.5774C15.5556 74.4246 17.0417 75.9107 18.8889 75.9107C20.7361 75.9107 22.2222 74.4246 22.2222 72.5774C22.2222 62.1468 13.7639 53.6885 3.33333 53.6885C1.48611 53.6885 0 55.1746 0 57.0218Z" fill="black"/>
</g>
<defs>
<clipPath id="clip0_133_10">
<rect width="80" height="71.1111" fill="white" transform="translate(0 4.79999)"/>
</clipPath>
</defs>
</svg>
