<svg width="80" height="80" viewBox="0 0 80 80" fill="none" xmlns="http://www.w3.org/2000/svg">
<mask id="mask0_137_35" style="mask-type:alpha" maskUnits="userSpaceOnUse" x="0" y="0" width="80" height="80">
<rect width="80" height="80" fill="#D9D9D9"/>
</mask>
<g mask="url(#mask0_137_35)">
<mask id="mask1_137_35" style="mask-type:alpha" maskUnits="userSpaceOnUse" x="0" y="0" width="80" height="80">
<rect width="80" height="80" fill="#AAAAAA"/>
</mask>
<g mask="url(#mask1_137_35)">
</g>
<path d="M40 10C35.8594 10 32.5 13.3594 32.5 17.5V43.2031C32.5 45.9062 31.3906 48.1875 30.1094 49.8438C28.4687 51.9688 27.5 54.6094 27.5 57.5C27.5 64.4063 33.0937 70 40 70C46.9063 70 52.5 64.4063 52.5 57.5C52.5 54.6094 51.5313 51.9688 49.8906 49.8594C48.6094 48.2031 47.5 45.9219 47.5 43.2188V17.5C47.5 13.3594 44.1406 10 40 10ZM22.5 17.5C22.5 7.84375 30.3281 0 40 0C49.6719 0 57.5 7.82812 57.5 17.5V43.1875C57.5 43.2031 57.5156 43.2344 57.5313 43.2812C57.5625 43.375 57.6562 43.5312 57.7969 43.7187C60.75 47.5312 62.5 52.3125 62.5 57.4844C62.5 69.9062 52.4219 79.9844 40 79.9844C27.5781 79.9844 17.5 69.9219 17.5 57.5C17.5 52.3125 19.25 47.5312 22.2031 43.7344C22.3437 43.5469 22.4375 43.3906 22.4687 43.2969C22.4844 43.25 22.5 43.2188 22.5 43.2031V17.5ZM47.5 57.5C47.5 61.6406 44.1406 65 40 65C35.8594 65 32.5 61.6406 32.5 57.5C32.5 54.2344 34.5937 51.4531 37.5 50.4219V22.5C37.5 21.125 38.625 20 40 20C41.375 20 42.5 21.125 42.5 22.5V50.4219C45.4063 51.4531 47.5 54.2344 47.5 57.5Z" fill="black"/>
</g>
</svg>
